<svg width="1973" height="736" viewBox="0 0 1973 736" fill="none" xmlns="http://www.w3.org/2000/svg">
<path d="M1089.12 576.147L1160.22 297.759H1238V254H1126.23L1109.47 319.625L657 319.302L705.104 576.145H1089.12V576.147ZM1098.3 363.376L1055.13 532.388H741.428L709.722 363.098L1098.3 363.376Z" fill="#3B74F2"/>
<path d="M1029.22 735.617C1067.8 735.617 1099.2 704.224 1099.2 665.639C1099.2 627.053 1067.8 595.662 1029.22 595.662H765.571C726.986 595.662 695.593 627.053 695.593 665.639C695.593 704.224 726.985 735.617 765.571 735.617C804.157 735.617 835.548 704.224 835.548 665.639C835.548 656.372 833.733 647.523 830.447 639.421H964.342C961.056 647.523 959.24 656.372 959.24 665.639C959.241 704.224 990.633 735.617 1029.22 735.617ZM791.79 665.639C791.79 680.097 780.028 691.858 765.571 691.858C751.114 691.858 739.352 680.097 739.352 665.639C739.352 651.182 751.113 639.421 765.571 639.421C780.028 639.421 791.79 651.182 791.79 665.639ZM1055.44 665.639C1055.44 680.097 1043.68 691.858 1029.22 691.858C1014.76 691.858 1003 680.097 1003 665.639C1003 651.182 1014.76 639.421 1029.22 639.421C1043.68 639.421 1055.44 651.182 1055.44 665.639Z" fill="#3B74F2"/>
<path d="M6.6 149.6C6.6 135.733 9.6 123.4 15.6 112.6C21.6 101.667 29.9333 93.2 40.6 87.2C51.4 81.0667 63.6 78 77.2 78C93.8667 78 108.133 82.4 120 91.2C131.867 100 139.8 112 143.8 127.2H106.2C103.4 121.333 99.4 116.867 94.2 113.8C89.1333 110.733 83.3333 109.2 76.8 109.2C66.2667 109.2 57.7333 112.867 51.2 120.2C44.6667 127.533 41.4 137.333 41.4 149.6C41.4 161.867 44.6667 171.667 51.2 179C57.7333 186.333 66.2667 190 76.8 190C83.3333 190 89.1333 188.467 94.2 185.4C99.4 182.333 103.4 177.867 106.2 172H143.8C139.8 187.2 131.867 199.2 120 208C108.133 216.667 93.8667 221 77.2 221C63.6 221 51.4 218 40.6 212C29.9333 205.867 21.6 197.4 15.6 186.6C9.6 175.8 6.6 163.467 6.6 149.6ZM231.144 221.4C217.944 221.4 205.81 218.333 194.744 212.2C183.81 206.067 175.077 197.533 168.544 186.6C162.144 175.533 158.944 163.133 158.944 149.4C158.944 135.667 162.144 123.333 168.544 112.4C175.077 101.467 183.81 92.9333 194.744 86.8C205.81 80.6667 217.944 77.6 231.144 77.6C244.344 77.6 256.41 80.6667 267.344 86.8C278.41 92.9333 287.077 101.467 293.344 112.4C299.744 123.333 302.944 135.667 302.944 149.4C302.944 163.133 299.744 175.533 293.344 186.6C286.944 197.533 278.277 206.067 267.344 212.2C256.41 218.333 244.344 221.4 231.144 221.4ZM231.144 190.2C242.344 190.2 251.277 186.467 257.944 179C264.744 171.533 268.144 161.667 268.144 149.4C268.144 137 264.744 127.133 257.944 119.8C251.277 112.333 242.344 108.6 231.144 108.6C219.81 108.6 210.744 112.267 203.944 119.6C197.277 126.933 193.944 136.867 193.944 149.4C193.944 161.8 197.277 171.733 203.944 179.2C210.744 186.533 219.81 190.2 231.144 190.2ZM374.57 79.6C389.37 79.6 402.304 82.5333 413.37 88.4C424.437 94.2667 432.97 102.533 438.97 113.2C445.104 123.733 448.17 135.933 448.17 149.8C448.17 163.533 445.104 175.733 438.97 186.4C432.97 197.067 424.37 205.333 413.17 211.2C402.104 217.067 389.237 220 374.57 220H321.97V79.6H374.57ZM372.37 190.4C385.304 190.4 395.37 186.867 402.57 179.8C409.77 172.733 413.37 162.733 413.37 149.8C413.37 136.867 409.77 126.8 402.57 119.6C395.37 112.4 385.304 108.8 372.37 108.8H356.17V190.4H372.37ZM501.483 107V135.4H547.283V161.8H501.483V192.6H553.283V220H467.283V79.6H553.283V107H501.483ZM660.486 148C668.619 149.733 675.153 153.8 680.086 160.2C685.019 166.467 687.486 173.667 687.486 181.8C687.486 193.533 683.353 202.867 675.086 209.8C666.953 216.6 655.553 220 640.886 220H575.486V79.6H638.686C652.953 79.6 664.086 82.8667 672.086 89.4C680.219 95.9333 684.286 104.8 684.286 116C684.286 124.267 682.086 131.133 677.686 136.6C673.419 142.067 667.686 145.867 660.486 148ZM609.686 136.4H632.086C637.686 136.4 641.953 135.2 644.886 132.8C647.953 130.267 649.486 126.6 649.486 121.8C649.486 117 647.953 113.333 644.886 110.8C641.953 108.267 637.686 107 632.086 107H609.686V136.4ZM634.886 192.4C640.619 192.4 645.019 191.133 648.086 188.6C651.286 185.933 652.886 182.133 652.886 177.2C652.886 172.267 651.219 168.4 647.886 165.6C644.686 162.8 640.219 161.4 634.486 161.4H609.686V192.4H634.886ZM827.722 79.6L779.122 173.6V220H744.922V173.6L696.322 79.6H735.122L762.322 138.4L789.322 79.6H827.722ZM969.884 135.6V164H881.884V135.6H969.884ZM1036.48 149.6C1036.48 135.733 1039.48 123.4 1045.48 112.6C1051.48 101.667 1059.82 93.2 1070.48 87.2C1081.28 81.0667 1093.48 78 1107.08 78C1123.75 78 1138.02 82.4 1149.88 91.2C1161.75 100 1169.68 112 1173.68 127.2H1136.08C1133.28 121.333 1129.28 116.867 1124.08 113.8C1119.02 110.733 1113.22 109.2 1106.68 109.2C1096.15 109.2 1087.62 112.867 1081.08 120.2C1074.55 127.533 1071.28 137.333 1071.28 149.6C1071.28 161.867 1074.55 171.667 1081.08 179C1087.62 186.333 1096.15 190 1106.68 190C1113.22 190 1119.02 188.467 1124.08 185.4C1129.28 182.333 1133.28 177.867 1136.08 172H1173.68C1169.68 187.2 1161.75 199.2 1149.88 208C1138.02 216.667 1123.75 221 1107.08 221C1093.48 221 1081.28 218 1070.48 212C1059.82 205.867 1051.48 197.4 1045.48 186.6C1039.48 175.8 1036.48 163.467 1036.48 149.6ZM1187.83 164C1187.83 152.533 1189.96 142.467 1194.23 133.8C1198.63 125.133 1204.56 118.467 1212.03 113.8C1219.49 109.133 1227.83 106.8 1237.03 106.8C1244.89 106.8 1251.76 108.4 1257.63 111.6C1263.63 114.8 1268.23 119 1271.43 124.2V108.4H1305.63V220H1271.43V204.2C1268.09 209.4 1263.43 213.6 1257.43 216.8C1251.56 220 1244.69 221.6 1236.83 221.6C1227.76 221.6 1219.49 219.267 1212.03 214.6C1204.56 209.8 1198.63 203.067 1194.23 194.4C1189.96 185.6 1187.83 175.467 1187.83 164ZM1271.43 164.2C1271.43 155.667 1269.03 148.933 1264.23 144C1259.56 139.067 1253.83 136.6 1247.03 136.6C1240.23 136.6 1234.43 139.067 1229.63 144C1224.96 148.8 1222.63 155.467 1222.63 164C1222.63 172.533 1224.96 179.333 1229.63 184.4C1234.43 189.333 1240.23 191.8 1247.03 191.8C1253.83 191.8 1259.56 189.333 1264.23 184.4C1269.03 179.467 1271.43 172.733 1271.43 164.2ZM1364.57 127C1368.57 120.867 1373.57 116.067 1379.57 112.6C1385.57 109 1392.24 107.2 1399.57 107.2V143.4H1390.17C1381.64 143.4 1375.24 145.267 1370.97 149C1366.7 152.6 1364.57 159 1364.57 168.2V220H1330.37V108.4H1364.57V127ZM1478.12 191V220H1460.72C1448.32 220 1438.65 217 1431.72 211C1424.78 204.867 1421.32 194.933 1421.32 181.2V136.8H1407.72V108.4H1421.32V81.2H1455.52V108.4H1477.92V136.8H1455.52V181.6C1455.52 184.933 1456.32 187.333 1457.92 188.8C1459.52 190.267 1462.18 191 1465.92 191H1478.12ZM1601.75 191V220H1584.35C1571.95 220 1562.28 217 1555.35 211C1548.42 204.867 1544.95 194.933 1544.95 181.2V136.8H1531.35V108.4H1544.95V81.2H1579.15V108.4H1601.55V136.8H1579.15V181.6C1579.15 184.933 1579.95 187.333 1581.55 188.8C1583.15 190.267 1585.82 191 1589.55 191H1601.75ZM1726 162.4C1726 165.6 1725.8 168.933 1725.4 172.4H1648C1648.53 179.333 1650.73 184.667 1654.6 188.4C1658.6 192 1663.47 193.8 1669.2 193.8C1677.73 193.8 1683.67 190.2 1687 183H1723.4C1721.53 190.333 1718.13 196.933 1713.2 202.8C1708.4 208.667 1702.33 213.267 1695 216.6C1687.67 219.933 1679.47 221.6 1670.4 221.6C1659.47 221.6 1649.73 219.267 1641.2 214.6C1632.67 209.933 1626 203.267 1621.2 194.6C1616.4 185.933 1614 175.8 1614 164.2C1614 152.6 1616.33 142.467 1621 133.8C1625.8 125.133 1632.47 118.467 1641 113.8C1649.53 109.133 1659.33 106.8 1670.4 106.8C1681.2 106.8 1690.8 109.067 1699.2 113.6C1707.6 118.133 1714.13 124.6 1718.8 133C1723.6 141.4 1726 151.2 1726 162.4ZM1691 153.4C1691 147.533 1689 142.867 1685 139.4C1681 135.933 1676 134.2 1670 134.2C1664.27 134.2 1659.4 135.867 1655.4 139.2C1651.53 142.533 1649.13 147.267 1648.2 153.4H1691ZM1789.44 221.6C1779.71 221.6 1771.04 219.933 1763.44 216.6C1755.84 213.267 1749.84 208.733 1745.44 203C1741.04 197.133 1738.57 190.6 1738.04 183.4H1771.84C1772.24 187.267 1774.04 190.4 1777.24 192.8C1780.44 195.2 1784.37 196.4 1789.04 196.4C1793.31 196.4 1796.57 195.6 1798.84 194C1801.24 192.267 1802.44 190.067 1802.44 187.4C1802.44 184.2 1800.77 181.867 1797.44 180.4C1794.11 178.8 1788.71 177.067 1781.24 175.2C1773.24 173.333 1766.57 171.4 1761.24 169.4C1755.91 167.267 1751.31 164 1747.44 159.6C1743.57 155.067 1741.64 149 1741.64 141.4C1741.64 135 1743.37 129.2 1746.84 124C1750.44 118.667 1755.64 114.467 1762.44 111.4C1769.37 108.333 1777.57 106.8 1787.04 106.8C1801.04 106.8 1812.04 110.267 1820.04 117.2C1828.17 124.133 1832.84 133.333 1834.04 144.8H1802.44C1801.91 140.933 1800.17 137.867 1797.24 135.6C1794.44 133.333 1790.71 132.2 1786.04 132.2C1782.04 132.2 1778.97 133 1776.84 134.6C1774.71 136.067 1773.64 138.133 1773.64 140.8C1773.64 144 1775.31 146.4 1778.64 148C1782.11 149.6 1787.44 151.2 1794.64 152.8C1802.91 154.933 1809.64 157.067 1814.84 159.2C1820.04 161.2 1824.57 164.533 1828.44 169.2C1832.44 173.733 1834.51 179.867 1834.64 187.6C1834.64 194.133 1832.77 200 1829.04 205.2C1825.44 210.267 1820.17 214.267 1813.24 217.2C1806.44 220.133 1798.51 221.6 1789.44 221.6ZM1917.76 191V220H1900.36C1887.96 220 1878.3 217 1871.36 211C1864.43 204.867 1860.96 194.933 1860.96 181.2V136.8H1847.36V108.4H1860.96V81.2H1895.16V108.4H1917.56V136.8H1895.16V181.6C1895.16 184.933 1895.96 187.333 1897.56 188.8C1899.16 190.267 1901.83 191 1905.56 191H1917.76Z" fill="#3B74F2"/>
</svg>
